<?xml version="1.0" encoding="utf-8"?>
<!-- Generator: Adobe Illustrator 27.5.0, SVG Export Plug-In . SVG Version: 6.00 Build 0)  -->
<svg version="1.1" xmlns="http://www.w3.org/2000/svg" xmlns:xlink="http://www.w3.org/1999/xlink" x="0px" y="0px"
	 viewBox="0 0 3710 3710" style="enable-background:new 0 0 3710 3710;" xml:space="preserve">
<g id="Background">
	<g>
		<g>
			<rect style="fill:#FFFFFF;" width="3710" height="3710"/>
		</g>
	</g>
</g>
<g id="Illustration">
	<g>
		<path style="fill:#F4F7FA;" d="M3211.562,1649.066c-75.767-495.929-386.41-1105.213-1000.121-1168.976
			c0,0-465.958-56.677-925.29,29.223c-272.614,50.981-511.657,202.741-662.912,420.857
			c-151.258,218.117-201.783,484.08-140.464,737.643c39.826,164.692,66.738,335.141,59.352,504.372
			c-12.854,294.53-5.459,569.452,280.376,745.101c255.217,156.835,576.412,295.158,882.836,319.386
			c208.244,16.465,441.776-10.179,642.484-64.395C3370.672,2895.974,3287.329,2144.995,3211.562,1649.066z"/>
		<g>
			
				<linearGradient id="SVGID_1_" gradientUnits="userSpaceOnUse" x1="981.4274" y1="1346.567" x2="1987.7927" y2="1346.567" gradientTransform="matrix(-0.9779 0.2088 0.2088 0.9779 3750.4819 -185.7169)">
				<stop  offset="0.0036" style="stop-color:#E38DDD"/>
				<stop  offset="1" style="stop-color:#9571F6"/>
			</linearGradient>
			<path style="fill:url(#SVGID_1_);" d="M2419.773,2145.199c-41.029-5.068-110.101-13.601-168.266-65.708
				c-105.746-94.733-106.797-271.998-65.272-392.121c35.667-103.181,121.355-181.11,292.729-336.97
				c161.401-146.79,221.049-170.838,224.277-243.852c4.602-104.09-111.972-160.53-88.396-281.155
				c2.83-14.474,12.546-64.189,52.064-89.159c67.648-42.744,175.145,17.026,229.043,65.548
				c51.989,46.803,115.108,138.057,94.723,224.299c-14.77,62.485-60.826,69.256-61.196,124.421
				c-0.372,55.503,46.14,65.388,81.732,150.405c14.219,33.964,42.761,102.14,22.15,168.694
				c-26.65,86.056-111.352,91.5-115.013,159.831c-2.645,49.37,40.711,62.671,49.431,117.776
				c11.479,72.546-49.677,137.89-101.294,191.586C2805.703,2002.026,2641.719,2172.615,2419.773,2145.199z"/>
			<path style="opacity:0.16;fill:#FFFFFF;" d="M2700.176,762.08c-33.753,35.48,105.124,134.082,106.041,301.658
				c0.985,180.304-158.345,330.462-231.977,399.855c-125.627,118.396-190.737,112.136-262.775,231.272
				c-28.511,47.151-87.909,145.383-55.854,258.19c2.978,10.481,37.923,126.831,140.843,164.156
				c116.74,42.337,232.175-49.189,331.642-128.051c60.102-47.653,180.166-142.845,155.207-215.239
				c-15.257-44.255-81.195-69.799-131.315-70.809c-71.535-1.444-120.646,46.89-129.258,36.276
				c-7.757-9.559,24.625-57.969,74.221-99.094c99.202-82.255,165.853-51.262,237.231-123.498
				c8.652-8.755,76.197-79.126,60.762-162.122c-8.902-47.867-45.639-101.18-86.161-102.995c-45.83-2.054-76.722,62.649-88.76,55.374
				c-11.512-6.956,9.739-70.34,39.891-129.916c44.304-87.537,70.909-93.912,83.258-146.112
				c18.84-79.641-22.884-150.227-29.027-160.288C2856.58,776.46,2729.034,731.745,2700.176,762.08z"/>
		</g>
		<g>
			
				<linearGradient id="SVGID_00000114754267088017814690000014405440356473005454_" gradientUnits="userSpaceOnUse" x1="1247.9312" y1="1096.3765" x2="2254.2905" y2="1096.3765" gradientTransform="matrix(-0.9996 0.0279 0.0279 0.9996 4473.3232 751.8994)">
				<stop  offset="0" style="stop-color:#FF9085"/>
				<stop  offset="1" style="stop-color:#FB6FBB"/>
			</linearGradient>
			<path style="fill:url(#SVGID_00000114754267088017814690000014405440356473005454_);" d="M2468.292,2560.066
				c-39.427-12.43-105.804-33.357-153.546-95.156c-86.796-112.353-55.656-286.864,6.98-397.456
				c53.802-94.994,152.21-156.076,349.027-278.244c185.361-115.058,248.385-127.881,264.811-199.096
				c23.418-101.525-80.977-178.187-35.899-292.529c5.41-13.721,23.988-60.846,67.381-78.229
				c74.281-29.756,169.145,48.531,213.342,106.03c42.631,55.462,88.14,156.655,52.44,237.766
				c-25.865,58.766-72.386,57.066-82.762,111.248c-10.439,54.513,33.505,72.676,53.076,162.741
				c7.819,35.981,23.513,108.204-8.834,169.913c-41.827,79.79-126.11,69.771-142.112,136.302
				c-11.562,48.071,28.66,69.019,27.234,124.792c-1.879,73.425-73.878,126.583-134.384,170.019
				C2873.798,2489.316,2681.576,2627.309,2468.292,2560.066z"/>
			<path style="opacity:0.16;fill:#FFFFFF;" d="M2995.07,1250.81c-39.632,28.765,79.043,150.935,49.529,315.894
				c-31.755,177.488-215.693,296.235-300.696,351.11c-145.029,93.628-207.922,75.656-300.385,179.739
				c-36.595,41.194-112.835,127.013-101.788,243.764c1.026,10.847,14.274,131.608,108.711,186.992
				c107.117,62.822,237.247-6.234,349.374-65.733c67.753-35.954,203.1-107.774,191.695-183.495
				c-6.971-46.289-67.178-83.376-116.282-93.466c-70.085-14.404-127.153,24.214-133.695,12.213
				c-5.892-10.808,34.738-52.537,90.974-83.977c112.484-62.884,172.402-20.309,255.705-78.39
				c10.097-7.04,89.293-63.982,89.177-148.401c-0.066-48.688-26.517-107.783-66.036-116.923
				c-44.697-10.338-86.819,47.684-97.337,38.344c-10.058-8.93,22.344-67.404,62.808-120.518
				c59.456-78.043,86.776-79.483,108.394-128.574c32.981-74.898,4.762-151.885,0.547-162.894
				C3146.266,1293.338,3028.954,1226.217,2995.07,1250.81z"/>
		</g>
		<g>
			<g>
				<g>
					
						<linearGradient id="SVGID_00000144299443053114823880000011618179806784412050_" gradientUnits="userSpaceOnUse" x1="682.7683" y1="1827.9851" x2="1411.5164" y2="1827.9851">
						<stop  offset="0" style="stop-color:#FF9085"/>
						<stop  offset="1" style="stop-color:#FB6FBB"/>
					</linearGradient>
					<polygon style="fill:url(#SVGID_00000144299443053114823880000011618179806784412050_);" points="1411.516,2908.039 
						682.768,2852.603 682.768,801.904 1411.516,747.932 					"/>
					<polygon style="fill:#D8DEE8;" points="753.361,1549.693 753.361,2421.192 739.095,2421.192 739.095,2644.24 1411.516,2644.24 
						1411.516,1549.693 					"/>
					<g>
						<defs>
							<polygon id="SVGID_00000155131229954236001890000015403712101558565291_" points="739.095,2762.97 739.095,891.651 
								1411.516,846.454 1411.516,2809.516 							"/>
						</defs>
						<clipPath id="SVGID_00000084509285048959617120000003861476960821205645_">
							<use xlink:href="#SVGID_00000155131229954236001890000015403712101558565291_"  style="overflow:visible;"/>
						</clipPath>
						<g style="clip-path:url(#SVGID_00000084509285048959617120000003861476960821205645_);">
							<path style="fill:#FFFFFF;" d="M1629.641,598.471c0,0,0.707,471.757,106.495,688.315
								c105.789,216.558,145.592,427.396,65.985,550.846c-79.606,123.45-390.605-64.922-390.605-64.922
								s-146.739,103.53-213.078,325.066c-66.339,221.536-497.542,406.138-590.416,343.689
								c-92.874-62.449-53.071-1734.346-53.071-1734.346L1629.641,598.471z"/>
							<path style="fill:#FFFFFF;" d="M588.12,2568.591c0,0,261.289,121.844,459.022,9.255
								c197.733-112.589,364.374-314.923,364.374-314.923s201.095,123.221,309.118,116.34
								c108.023-6.881,187.936-353.479,187.936-353.479s178.809-88.862,258.415-269.165s323.962-376.662,457.738-417.795
								c133.776-41.132,212.284,35.655,212.284,35.655l-33.17,1571.584L739.095,3054.188L588.12,2568.591z"/>
							
								<linearGradient id="SVGID_00000124131081733302468950000000906519159665796523_" gradientUnits="userSpaceOnUse" x1="2198.6685" y1="626.8456" x2="2778.2371" y2="1924.8022">
								<stop  offset="0" style="stop-color:#FCB148"/>
								<stop  offset="0.0521" style="stop-color:#FDBA46"/>
								<stop  offset="0.1424" style="stop-color:#FFC244"/>
								<stop  offset="0.3183" style="stop-color:#FFC444"/>
								<stop  offset="0.4849" style="stop-color:#FDB946"/>
								<stop  offset="0.7754" style="stop-color:#F99C4D"/>
								<stop  offset="0.8658" style="stop-color:#F8924F"/>
								<stop  offset="1" style="stop-color:#F8924F"/>
							</linearGradient>
							<path style="fill:url(#SVGID_00000124131081733302468950000000906519159665796523_);" d="M1764.843,657.144
								c0,0-70.448,323.244,0,408.924c70.448,85.68,124.132,330.902,143.727,397.357c19.595,66.454,172.175,211.911,251.781,79.478
								c79.607-132.433,199.017-229.033,258.722-273.607c59.705-44.575,437.836-90.351,457.738-123.851
								c19.902-33.5,33.169-413.621,33.169-413.621L1764.843,657.144z"/>
						</g>
					</g>
				</g>
				<g>
					
						<linearGradient id="SVGID_00000021828766812369559020000008621118089202843821_" gradientUnits="userSpaceOnUse" x1="2140.3911" y1="1331.9182" x2="2984.8298" y2="3506.9841">
						<stop  offset="0" style="stop-color:#FF9085"/>
						<stop  offset="1" style="stop-color:#FB6FBB"/>
					</linearGradient>
					<polygon style="fill:url(#SVGID_00000021828766812369559020000008621118089202843821_);" points="1908.57,2790.205 
						2758.5,2790.205 2758.5,868.613 1908.57,868.613 					"/>
					<polygon style="fill:#D8DEE8;" points="2689.587,2702.419 2689.587,955.063 1908.57,955.063 1674.199,1614.89 
						1908.57,2702.419 					"/>
					<g>
						<defs>
							
								<rect id="SVGID_00000057126535294965476620000003228962976139279285_" x="1425.401" y="1438.233" transform="matrix(-1.836970e-16 1 -1 -1.836970e-16 4127.8193 -470.3376)" width="1747.356" height="781.016"/>
						</defs>
						<clipPath id="SVGID_00000119118960925815466630000016083470532944457126_">
							<use xlink:href="#SVGID_00000057126535294965476620000003228962976139279285_"  style="overflow:visible;"/>
						</clipPath>
						<g style="clip-path:url(#SVGID_00000119118960925815466630000016083470532944457126_);">
							<path style="fill:#FFFFFF;" d="M1629.641,598.471c0,0,0.707,471.757,106.495,688.315
								c105.789,216.558,145.592,427.396,65.985,550.846c-79.606,123.45-390.605-64.922-390.605-64.922
								s-146.739,103.53-213.078,325.066c-66.339,221.536-497.542,406.138-590.416,343.689
								c-92.874-62.449-53.071-1734.346-53.071-1734.346L1629.641,598.471z"/>
							<path style="fill:#FFFFFF;" d="M588.12,2568.591c0,0,261.289,121.844,459.022,9.255
								c197.733-112.589,364.374-314.923,364.374-314.923s201.095,123.221,309.118,116.34
								c108.023-6.881,187.936-353.479,187.936-353.479s178.809-88.862,258.415-269.165s323.962-376.662,457.738-417.795
								c133.776-41.132,212.284,35.655,212.284,35.655l-33.17,1571.584L739.095,3054.188L588.12,2568.591z"/>
							<path style="fill:#FFFFFF;" d="M1764.843,657.144c0,0-70.448,323.244,0,408.924
								c70.448,85.68,124.132,330.902,143.727,397.357c19.595,66.454,172.175,211.911,251.781,79.478
								c79.607-132.433,199.017-229.033,258.722-273.607c59.705-44.575,437.836-90.351,457.738-123.851
								c19.902-33.5,33.169-413.621,33.169-413.621L1764.843,657.144z"/>
						</g>
					</g>
				</g>
				<g>
					
						<linearGradient id="SVGID_00000170963263911349118210000008478178573517121152_" gradientUnits="userSpaceOnUse" x1="1207.8307" y1="1826.7506" x2="2130.5808" y2="1832.343">
						<stop  offset="0" style="stop-color:#FF9085"/>
						<stop  offset="1" style="stop-color:#FB6FBB"/>
					</linearGradient>
					<polygon style="fill:url(#SVGID_00000170963263911349118210000008478178573517121152_);" points="1908.57,2790.205 
						1411.516,2908.039 1411.516,747.932 1908.57,868.613 1908.57,955.063 1815.525,1139.746 1787.097,2665.892 1908.57,2702.419 
											"/>
					<polygon style="fill:#97A6B7;" points="1908.57,2409.696 1908.57,977.507 1733.547,917.593 1646.737,898.417 1631.759,896.656 
						1631.759,1770.442 1411.516,1770.442 1411.516,2409.696 					"/>
					<g>
						<defs>
							<polygon id="SVGID_00000153681864837165529200000007082682390369887873_" points="1411.516,2809.516 1411.516,846.454 
								1908.57,955.063 1908.57,2702.561 							"/>
						</defs>
						<clipPath id="SVGID_00000140704047604664571800000006285225373274571144_">
							<use xlink:href="#SVGID_00000153681864837165529200000007082682390369887873_"  style="overflow:visible;"/>
						</clipPath>
						<g style="clip-path:url(#SVGID_00000140704047604664571800000006285225373274571144_);">
							<path style="fill:#D8DEE8;" d="M1629.641,598.471c0,0,0.707,471.757,106.495,688.315
								c105.789,216.558,145.592,427.396,65.985,550.846c-79.606,123.45-390.605-64.922-390.605-64.922
								s-146.739,103.53-213.078,325.066c-66.339,221.536-497.542,406.138-590.416,343.689
								c-92.874-62.449-53.071-1734.346-53.071-1734.346L1629.641,598.471z"/>
							<path style="fill:#D8DEE8;" d="M588.12,2568.591c0,0,261.289,121.844,459.022,9.255
								c197.733-112.589,364.374-314.923,364.374-314.923s201.095,123.221,309.118,116.34
								c108.023-6.881,187.936-353.479,187.936-353.479s178.809-88.862,258.415-269.165s323.962-376.662,457.738-417.795
								c133.776-41.132,212.284,35.655,212.284,35.655l-33.17,1571.584L739.095,3054.188L588.12,2568.591z"/>
							<path style="fill:#D8DEE8;" d="M1764.843,657.144c0,0-70.448,323.244,0,408.924
								c70.448,85.68,124.132,330.902,143.727,397.357c19.595,66.454,172.175,211.911,251.781,79.478
								c79.607-132.433,199.017-229.033,258.722-273.607c59.705-44.575,437.836-90.351,457.738-123.851
								c19.902-33.5,33.169-413.621,33.169-413.621L1764.843,657.144z"/>
						</g>
					</g>
				</g>
				<g>
					
						<linearGradient id="SVGID_00000089545976207590622880000011626606109324432049_" gradientUnits="userSpaceOnUse" x1="2292.4446" y1="1872.6344" x2="2305.7124" y2="1872.6344">
						<stop  offset="0" style="stop-color:#311944"/>
						<stop  offset="1" style="stop-color:#A03976"/>
					</linearGradient>
					
						<rect x="2292.445" y="955.064" style="opacity:0.53;fill:url(#SVGID_00000089545976207590622880000011626606109324432049_);" width="13.268" height="1835.141"/>
					
						<linearGradient id="SVGID_00000049209249384659288650000014322223224164466065_" gradientUnits="userSpaceOnUse" x1="1068.6724" y1="1829.6288" x2="1081.9399" y2="1829.6288">
						<stop  offset="0" style="stop-color:#311944"/>
						<stop  offset="1" style="stop-color:#A03976"/>
					</linearGradient>
					
						<rect x="1068.672" y="869.053" style="opacity:0.53;fill:url(#SVGID_00000049209249384659288650000014322223224164466065_);" width="13.267" height="1921.151"/>
					
						<linearGradient id="SVGID_00000161628939210913383550000003933318421687808700_" gradientUnits="userSpaceOnUse" x1="738.536" y1="1503.4766" x2="2689.5872" y2="1503.4766">
						<stop  offset="0" style="stop-color:#311944"/>
						<stop  offset="1" style="stop-color:#A03976"/>
					</linearGradient>
					<polygon style="opacity:0.53;fill:url(#SVGID_00000161628939210913383550000003933318421687808700_);" points="
						2689.587,1569.213 1907.793,1569.213 1907.036,1569.031 1411.016,1451.138 739.654,1507.843 738.536,1494.621 
						1412.016,1437.74 1413.05,1437.986 1909.349,1555.945 2689.587,1555.945 					"/>
				</g>
			</g>
			<g>
				<g>
					
						<linearGradient id="SVGID_00000016046864485820380780000001174654844893592718_" gradientUnits="userSpaceOnUse" x1="871.0447" y1="1884.2644" x2="2387.3398" y2="1884.2644">
						<stop  offset="0" style="stop-color:#AA80F9"/>
						<stop  offset="0.9964" style="stop-color:#6165D7"/>
					</linearGradient>
					<path style="fill:url(#SVGID_00000016046864485820380780000001174654844893592718_);" d="M886.479,1905.849
						c-4.719,0-9.377-2.157-12.402-6.238c-5.07-6.844-3.634-16.5,3.206-21.572c0.033-0.023,5.957-4.414,16.331-12.247
						c6.794-5.127,16.465-3.782,21.599,3.017c5.13,6.799,3.778,16.469-3.019,21.6c-10.538,7.957-16.545,12.407-16.545,12.407
						C892.888,1904.863,889.668,1905.849,886.479,1905.849z"/>
				</g>
				<g>
					
						<linearGradient id="SVGID_00000096737775119635462960000011844215289000979844_" gradientUnits="userSpaceOnUse" x1="871.3614" y1="1736.347" x2="2377.7522" y2="1736.347">
						<stop  offset="0" style="stop-color:#AA80F9"/>
						<stop  offset="0.9964" style="stop-color:#6165D7"/>
					</linearGradient>
					<path style="fill:url(#SVGID_00000096737775119635462960000011844215289000979844_);" d="M2206.959,1965.975
						c-9.15,0-19.631-1.307-32.05-3.998c-8.323-1.804-13.607-10.013-11.807-18.336c1.807-8.326,10.026-13.612,18.339-11.807
						c14.882,3.226,26.736,4.081,33.827,2.558c8.199-1.892,16.385,3.119,18.426,11.286c2.068,8.263-2.955,16.634-11.218,18.701
						c-0.134,0.032-0.352,0.084-0.482,0.114C2217.49,1965.48,2212.447,1965.975,2206.959,1965.975z M2257.352,1951.642
						c-5.766,0-11.295-3.248-13.935-8.802c-3.658-7.692-0.388-16.892,7.302-20.55c11.081-5.267,21.79-11.909,31.839-19.736
						c6.72-5.232,16.408-4.029,21.642,2.687c5.234,6.718,4.033,16.408-2.687,21.642c-11.813,9.205-24.447,17.031-37.549,23.26
						C2261.826,1951.16,2259.57,1951.642,2257.352,1951.642z M2138.796,1951.108c-1.636,0-3.3-0.261-4.936-0.813
						c-11.978-4.046-25.173-8.95-39.215-14.581c-7.905-3.169-11.743-12.146-8.574-20.051c3.173-7.906,12.145-11.741,20.052-8.576
						c13.513,5.418,26.164,10.123,37.602,13.985c8.068,2.726,12.402,11.475,9.678,19.546
						C2151.232,1947.05,2145.228,1951.108,2138.796,1951.108z M2062.615,1920.875c-2.078,0-4.193-0.423-6.221-1.319
						c-11.937-5.272-24.594-11.057-37.615-17.191c-7.704-3.629-11.007-12.817-7.379-20.523c3.631-7.706,12.814-11.01,20.525-7.378
						c12.797,6.029,25.223,11.708,36.933,16.88c7.791,3.44,11.315,12.546,7.875,20.337
						C2074.184,1917.447,2068.538,1920.875,2062.615,1920.875z M2321.649,1902.016c-3.604,0-7.225-1.257-10.154-3.82
						c-6.405-5.61-7.051-15.354-1.442-21.761c8.196-9.357,15.879-19.743,22.837-30.872c4.514-7.224,14.035-9.412,21.251-4.899
						c7.222,4.514,9.414,14.029,4.899,21.251c-7.831,12.525-16.505,24.246-25.782,34.841
						C2330.21,1900.235,2325.939,1902.016,2321.649,1902.016z M1988.438,1886.022c-2.296,0-4.622-0.514-6.817-1.596
						c-11.87-5.861-24.253-12.091-36.809-18.518c-7.58-3.882-10.578-13.174-6.7-20.755c3.882-7.578,13.176-10.583,20.755-6.698
						c12.422,6.359,24.671,12.521,36.407,18.316c7.637,3.771,10.769,13.018,7.001,20.655
						C1999.589,1882.866,1994.12,1886.022,1988.438,1886.022z M935.436,1868.727c-4.625,0-9.196-2.07-12.235-6.019
						c-5.191-6.752-3.929-16.433,2.825-21.625c9.712-7.471,20.565-15.875,32.264-25.026c6.713-5.244,16.402-4.059,21.649,2.649
						c5.247,6.708,4.059,16.4-2.647,21.647c-11.773,9.205-22.693,17.662-32.465,25.176
						C942.025,1867.685,938.719,1868.727,935.436,1868.727z M1915.466,1848.703c-2.423,0-4.883-0.574-7.178-1.782
						c-12.088-6.372-24.202-12.849-36.29-19.383c-7.49-4.051-10.281-13.408-6.228-20.901c4.049-7.49,13.406-10.277,20.899-6.23
						c11.987,6.484,24.008,12.908,36.002,19.229c7.533,3.972,10.421,13.299,6.449,20.832
						C1926.359,1845.709,1921.005,1848.703,1915.466,1848.703z M999.951,1818.271c-4.538,0-9.032-1.993-12.078-5.82
						c-5.301-6.665-4.197-16.366,2.466-21.669c10.281-8.177,20.936-16.724,31.819-25.543c6.613-5.363,16.325-4.346,21.689,2.272
						c5.361,6.618,4.344,16.328-2.272,21.689c-10.957,8.878-21.686,17.482-32.033,25.717
						C1006.705,1817.175,1003.315,1818.271,999.951,1818.271z M1843.384,1809.75c-2.523,0-5.08-0.621-7.446-1.928
						c-12.078-6.675-24.065-13.365-35.895-20.027c-7.419-4.18-10.046-13.584-5.867-21.005c4.176-7.423,13.594-10.047,21.003-5.868
						c11.76,6.623,23.674,13.273,35.678,19.907c7.453,4.12,10.157,13.502,6.037,20.956
						C1854.083,1806.876,1848.816,1809.75,1843.384,1809.75z M1771.968,1769.536c-2.604,0-5.241-0.659-7.66-2.048
						c-12.128-6.958-24.012-13.83-35.571-20.568c-7.359-4.289-9.849-13.731-5.559-21.088c4.29-7.359,13.741-9.846,21.087-5.557
						c11.499,6.702,23.322,13.54,35.39,20.461c7.386,4.237,9.939,13.661,5.703,21.048
						C1782.51,1766.754,1777.313,1769.536,1771.968,1769.536z M1063.559,1766.707c-4.441,0-8.842-1.904-11.894-5.59
						c-5.428-6.563-4.508-16.284,2.055-21.713c10.712-8.865,21.227-17.665,31.244-26.158c6.492-5.51,16.221-4.707,21.736,1.789
						c5.509,6.496,4.705,16.228-1.79,21.734c-10.11,8.574-20.719,17.456-31.531,26.399
						C1070.504,1765.547,1067.02,1766.707,1063.559,1766.707z M1701.151,1728.248c-2.674,0-5.385-0.694-7.851-2.157
						c-12.325-7.309-24.125-14.367-35.286-21.097c-7.292-4.399-9.638-13.878-5.241-21.17c4.404-7.294,13.881-9.633,21.17-5.241
						c11.094,6.693,22.827,13.711,35.085,20.976c7.326,4.344,9.745,13.805,5.401,21.13
						C1711.549,1725.549,1706.419,1728.248,1701.151,1728.248z M1125.98,1713.736c-4.297,0-8.574-1.785-11.623-5.277
						c-5.602-6.415-4.943-16.157,1.473-21.759c10.635-9.287,20.859-18.375,30.387-27.007c6.308-5.718,16.06-5.241,21.783,1.071
						c5.716,6.312,5.237,16.063-1.074,21.783c-9.665,8.76-20.033,17.973-30.809,27.385
						C1133.192,1712.483,1129.577,1713.736,1125.98,1713.736z M1630.957,1685.884c-2.758,0-5.549-0.738-8.069-2.291
						c-12.801-7.878-24.567-15.222-34.972-21.825c-7.192-4.563-9.32-14.092-4.759-21.283c4.568-7.193,14.092-9.32,21.284-4.757
						c10.284,6.528,21.93,13.795,34.61,21.601c7.255,4.464,9.514,13.962,5.05,21.216
						C1641.191,1683.277,1636.134,1685.884,1630.957,1685.884z M1186.586,1658.695c-4.073,0-8.139-1.603-11.171-4.786
						c-5.873-6.166-5.636-15.928,0.532-21.801c10.411-9.919,20.093-19.454,28.774-28.339c5.95-6.094,15.719-6.203,21.806-0.256
						c6.091,5.952,6.208,15.716,0.255,21.808c-8.935,9.149-18.885,18.947-29.564,29.118
						C1194.233,1657.282,1190.405,1658.695,1186.586,1658.695z M1561.867,1641.708c-2.975,0-5.984-0.86-8.634-2.654
						c-6.563-4.444-13.263-9.041-20.073-13.714c-4.538-3.112-9.123-6.26-13.754-9.419c-7.034-4.801-8.848-14.395-4.046-21.43
						c4.799-7.036,14.39-8.845,21.428-4.048c4.652,3.174,9.263,6.337,13.821,9.466c6.757,4.637,13.403,9.196,19.919,13.607
						c7.051,4.774,8.899,14.362,4.123,21.415C1571.669,1639.333,1566.81,1641.708,1561.867,1641.708z M1243.545,1599.911
						c-3.574,0-7.165-1.235-10.08-3.756c-6.442-5.57-7.148-15.309-1.576-21.751c4.424-5.12,8.507-10.063,12.131-14.695
						c4.933-6.298,10.147-12.115,15.505-17.288c6.128-5.917,15.889-5.744,21.803,0.378c5.917,6.126,5.749,15.89-0.378,21.806
						c-4.334,4.186-8.587,8.935-12.643,14.114c-3.929,5.023-8.336,10.359-13.092,15.858
						C1252.166,1598.103,1247.869,1599.911,1243.545,1599.911z M1494.022,1595.92c-2.858,0-5.749-0.793-8.333-2.455
						c-12.473-8.028-23.664-14.829-34.209-20.789c-7.416-4.19-10.03-13.599-5.84-21.013c4.197-7.414,13.601-10.028,21.013-5.836
						c11.064,6.253,22.75,13.353,35.728,21.702c7.162,4.61,9.23,14.151,4.622,21.313
						C1504.055,1593.422,1499.089,1595.92,1494.022,1595.92z M1422.583,1556.181c-2.082,0-4.193-0.422-6.218-1.315
						c-12.74-5.619-24.888-9.918-36.113-12.777c-8.253-2.103-13.239-10.498-11.134-18.751c2.102-8.251,10.485-13.237,18.751-11.137
						c12.871,3.28,26.645,8.141,40.945,14.447c7.791,3.437,11.321,12.54,7.885,20.332
						C1434.155,1552.747,1428.506,1556.181,1422.583,1556.181z M1303.883,1546.084c-5.964,0-11.639-3.479-14.159-9.3
						c-3.383-7.816,0.211-16.893,8.028-20.277c14.076-6.093,29.373-9.384,45.467-9.784c8.537-0.209,15.592,6.519,15.802,15.033
						c0.211,8.514-6.519,15.588-15.033,15.799c-12.295,0.306-23.409,2.679-33.988,7.257
						C1308.006,1545.676,1305.928,1546.084,1303.883,1546.084z"/>
				</g>
				<g>
					
						<linearGradient id="SVGID_00000107546153230597407450000009444054403826173104_" gradientUnits="userSpaceOnUse" x1="870.7616" y1="1809.5444" x2="2387.2793" y2="1809.5444">
						<stop  offset="0" style="stop-color:#AA80F9"/>
						<stop  offset="0.9964" style="stop-color:#6165D7"/>
					</linearGradient>
					<path style="fill:url(#SVGID_00000107546153230597407450000009444054403826173104_);" d="M2364.368,1834.528
						c-2.088,0-4.21-0.427-6.241-1.328c-7.788-3.452-11.298-12.563-7.844-20.349c4.668-10.527,6.82-17.379,6.844-17.447
						c2.533-8.122,11.167-12.665,19.293-10.15c8.125,2.52,12.68,11.134,10.17,19.263c-0.104,0.341-2.637,8.492-8.115,20.841
						C2375.924,1831.11,2370.281,1834.528,2364.368,1834.528z"/>
				</g>
			</g>
			<g>
				<g>
					
						<linearGradient id="SVGID_00000000184555562617908140000001606661249124247173_" gradientUnits="userSpaceOnUse" x1="868.1006" y1="814.6595" x2="1312.1827" y2="1958.5056">
						<stop  offset="0" style="stop-color:#AA80F9"/>
						<stop  offset="0.9964" style="stop-color:#6165D7"/>
					</linearGradient>
					<path style="fill:url(#SVGID_00000000184555562617908140000001606661249124247173_);" d="M1365.95,974.752
						c0,188.431-263.981,532.274-383.447,678.234c-29.729,36.322-85.303,36.322-115.032,0
						c-119.466-145.96-383.447-489.804-383.447-678.234c0-243.537,197.426-440.963,440.963-440.963
						C1168.524,533.789,1365.95,731.215,1365.95,974.752z"/>
					
						<ellipse transform="matrix(0.7071 -0.7071 0.7071 0.7071 -418.3315 939.563)" style="fill:#FFFFFF;" cx="924.987" cy="974.752" rx="245.931" ry="245.931"/>
					<g style="opacity:0.3;">
						
							<linearGradient id="SVGID_00000171710698740021425700000008465383142957873548_" gradientUnits="userSpaceOnUse" x1="709.0905" y1="876.3923" x2="1153.1736" y2="2020.2407">
							<stop  offset="0" style="stop-color:#AA80F9"/>
							<stop  offset="0.9964" style="stop-color:#6165D7"/>
						</linearGradient>
						<path style="fill:url(#SVGID_00000171710698740021425700000008465383142957873548_);" d="M923.039,1471.934
							c27.977-184.24,149.641-243.212,128.759-417.179c-24.083-200.631-201.728-254.067-206.014-432.63
							c-0.69-28.748,3.221-56.469,10.597-83.014c-210.951,32.956-372.356,215.443-372.356,435.641
							c0,188.43,263.981,532.274,383.447,678.234c17.498,21.379,43.949,30.16,68.815,26.371
							C914.907,1598.661,914.26,1529.75,923.039,1471.934z"/>
					</g>
				</g>
				
					<linearGradient id="SVGID_00000126302679173178293120000004489012727278685601_" gradientUnits="userSpaceOnUse" x1="1040.568" y1="1692.0852" x2="752.1482" y2="2129.8657">
					<stop  offset="0" style="stop-color:#AA80F9"/>
					<stop  offset="0.9964" style="stop-color:#6165D7"/>
				</linearGradient>
				
					<circle style="fill:url(#SVGID_00000126302679173178293120000004489012727278685601_);" cx="924.987" cy="1867.521" r="90.131"/>
			</g>
			<g>
				<g>
					
						<linearGradient id="SVGID_00000085950275469079189460000001911544294412761477_" gradientUnits="userSpaceOnUse" x1="2345.9663" y1="1308.8391" x2="2548.0488" y2="1829.354">
						<stop  offset="0" style="stop-color:#FF9085"/>
						<stop  offset="1" style="stop-color:#FB6FBB"/>
					</linearGradient>
					<path style="fill:url(#SVGID_00000085950275469079189460000001911544294412761477_);" d="M2572.516,1381.69
						c0,85.747-120.126,242.215-174.49,308.635c-13.528,16.528-38.818,16.528-52.346,0c-54.364-66.42-174.49-222.889-174.49-308.635
						c0-110.823,89.84-200.663,200.663-200.663C2482.676,1181.027,2572.516,1270.867,2572.516,1381.69z"/>
					
						<ellipse transform="matrix(0.1387 -0.9903 0.9903 0.1387 674.5387 3538.9753)" style="fill:#FFFFFF;" cx="2371.853" cy="1381.69" rx="111.913" ry="111.913"/>
					<g style="opacity:0.3;">
						
							<linearGradient id="SVGID_00000134961655886869833410000003391066439796532631_" gradientUnits="userSpaceOnUse" x1="2273.6077" y1="1336.931" x2="2475.6907" y2="1857.4473">
							<stop  offset="0" style="stop-color:#FF9085"/>
							<stop  offset="1" style="stop-color:#FB6FBB"/>
						</linearGradient>
						<path style="fill:url(#SVGID_00000134961655886869833410000003391066439796532631_);" d="M2370.966,1607.937
							c12.731-83.84,68.095-110.676,58.593-189.841c-10.959-91.298-91.798-115.615-93.748-196.871
							c-0.314-13.082,1.466-25.697,4.822-37.776c-95.995,14.997-169.443,98.038-169.443,198.241
							c0,85.746,120.127,242.215,174.49,308.635c7.963,9.729,20,13.724,31.315,12
							C2367.266,1665.604,2366.971,1634.246,2370.966,1607.937z"/>
					</g>
				</g>
				
					<linearGradient id="SVGID_00000161626713963192097570000002602829349907039132_" gradientUnits="userSpaceOnUse" x1="2424.4487" y1="1708.1177" x2="2293.2014" y2="1907.3325">
					<stop  offset="0" style="stop-color:#FF9085"/>
					<stop  offset="1" style="stop-color:#FB6FBB"/>
				</linearGradient>
				
					<circle style="fill:url(#SVGID_00000161626713963192097570000002602829349907039132_);" cx="2371.853" cy="1787.951" r="41.015"/>
			</g>
		</g>
		<g>
			
				<linearGradient id="SVGID_00000158022540277288562550000017299641463399738790_" gradientUnits="userSpaceOnUse" x1="4286.5" y1="2975.8867" x2="4627.604" y2="2975.8867" gradientTransform="matrix(-1 0 0 1 6348.9976 0)">
				<stop  offset="0" style="stop-color:#444B8C"/>
				<stop  offset="0.9964" style="stop-color:#26264F"/>
			</linearGradient>
			<polygon style="fill:url(#SVGID_00000158022540277288562550000017299641463399738790_);" points="2033.333,3083.434 
				1721.394,3070.674 1807.756,2868.339 2008.724,2880.2 2062.498,2968.139 			"/>
			<g>
				
					<linearGradient id="SVGID_00000003075379422262333140000001278300272930517637_" gradientUnits="userSpaceOnUse" x1="3931.4417" y1="2899.6982" x2="4114.6367" y2="2899.6982" gradientTransform="matrix(-1 0 0 1 6348.9976 0)">
					<stop  offset="0" style="stop-color:#311944"/>
					<stop  offset="1" style="stop-color:#6B3976"/>
				</linearGradient>
				<path style="fill:url(#SVGID_00000003075379422262333140000001278300272930517637_);" d="M2325.958,2761.804
					c2.077,0,4.131,0.141,6.174,0.347l32.413-0.347l-0.189,12.705c31.404,21.866,53.2,69.681,53.2,125.191
					c0,57.697-23.548,107.093-56.96,127.661l-0.152,10.232h-34.485c-50.586,0-91.597-61.737-91.597-137.893
					C2234.361,2823.541,2275.372,2761.804,2325.958,2761.804z"/>
				
					<linearGradient id="SVGID_00000174593354307125102060000002465483291981189508_" gradientUnits="userSpaceOnUse" x1="3892.855" y1="2899.6982" x2="4076.0493" y2="2899.6982" gradientTransform="matrix(-1 0 0 1 6348.9976 0)">
					<stop  offset="0" style="stop-color:#311944"/>
					<stop  offset="1" style="stop-color:#6B3976"/>
				</linearGradient>
				
					<ellipse style="fill:url(#SVGID_00000174593354307125102060000002465483291981189508_);" cx="2364.545" cy="2899.698" rx="91.597" ry="137.894"/>
			</g>
			<g>
				
					<linearGradient id="SVGID_00000070105698909909184910000000043391487229043844_" gradientUnits="userSpaceOnUse" x1="4805.8872" y1="3021.0015" x2="5030.3213" y2="3021.0015" gradientTransform="matrix(-1 0 0 1 6348.9976 0)">
					<stop  offset="0" style="stop-color:#311944"/>
					<stop  offset="1" style="stop-color:#6B3976"/>
				</linearGradient>
				<path style="fill:url(#SVGID_00000070105698909909184910000000043391487229043844_);" d="M1430.893,2866.516
					c2.545,0,5.061,0.159,7.563,0.389l39.71-0.389l-0.232,14.233c38.473,24.497,65.176,78.064,65.176,140.253
					c0,64.639-28.849,119.977-69.782,143.021l-0.186,11.463h-42.248c-61.974,0-112.217-69.165-112.217-154.484
					C1318.676,2935.681,1368.919,2866.516,1430.893,2866.516z"/>
				
					<linearGradient id="SVGID_00000111907777770033013200000010679440320658545070_" gradientUnits="userSpaceOnUse" x1="4758.6138" y1="3021.0015" x2="4983.0479" y2="3021.0015" gradientTransform="matrix(-1 0 0 1 6348.9976 0)">
					<stop  offset="0" style="stop-color:#311944"/>
					<stop  offset="1" style="stop-color:#6B3976"/>
				</linearGradient>
				
					<ellipse style="fill:url(#SVGID_00000111907777770033013200000010679440320658545070_);" cx="1478.167" cy="3021.001" rx="112.217" ry="154.485"/>
			</g>
			<g>
				
					<linearGradient id="SVGID_00000010312725555187244920000017224970716008262822_" gradientUnits="userSpaceOnUse" x1="4380.9053" y1="3096.6238" x2="4601.8506" y2="3096.6238" gradientTransform="matrix(-1 0 0 1 6348.9976 0)">
					<stop  offset="0" style="stop-color:#311944"/>
					<stop  offset="1" style="stop-color:#6B3976"/>
				</linearGradient>
				<path style="fill:url(#SVGID_00000010312725555187244920000017224970716008262822_);" d="M1857.62,2938.248
					c2.505,0,4.982,0.163,7.446,0.399l39.092-0.399l-0.229,14.592c37.875,25.114,64.163,80.031,64.163,143.786
					c0,66.267-28.401,122.999-68.698,146.623l-0.184,11.752h-41.591c-61.01,0-110.473-70.907-110.473-158.375
					C1747.147,3009.155,1796.609,2938.248,1857.62,2938.248z"/>
				
					<linearGradient id="SVGID_00000028287486406839812570000007739990081010312596_" gradientUnits="userSpaceOnUse" x1="4334.3672" y1="3096.624" x2="4555.3115" y2="3096.624" gradientTransform="matrix(-1 0 0 1 6348.9976 0)">
					<stop  offset="0" style="stop-color:#311944"/>
					<stop  offset="1" style="stop-color:#6B3976"/>
				</linearGradient>
				
					<ellipse style="fill:url(#SVGID_00000028287486406839812570000007739990081010312596_);" cx="1904.158" cy="3096.624" rx="110.472" ry="158.376"/>
				<ellipse style="fill:#D8DEE8;" cx="1919.684" cy="3096.624" rx="62.064" ry="88.977"/>
				
					<linearGradient id="SVGID_00000076586558607969201430000003063861181753307064_" gradientUnits="userSpaceOnUse" x1="4513.792" y1="3088.5063" x2="4412.6245" y2="3099.4434" gradientTransform="matrix(-1 0 0 1 6348.9976 0)">
					<stop  offset="0.0054" style="stop-color:#D8DEE8"/>
					<stop  offset="1" style="stop-color:#F4F7FA"/>
				</linearGradient>
				
					<ellipse style="fill:url(#SVGID_00000076586558607969201430000003063861181753307064_);" cx="1910.293" cy="3096.624" rx="52.673" ry="82.605"/>
			</g>
			
				<linearGradient id="SVGID_00000062192973544147742720000008203811222087631549_" gradientUnits="userSpaceOnUse" x1="3389.665" y1="2880.0613" x2="3870.8936" y2="2880.0613" gradientTransform="matrix(-1 0 0 1 6348.9976 0)">
				<stop  offset="0" style="stop-color:#444B8C"/>
				<stop  offset="0.9964" style="stop-color:#26264F"/>
			</linearGradient>
			<path style="fill:url(#SVGID_00000062192973544147742720000008203811222087631549_);" d="M2959.333,2761.804v164.856
				c0,43.035-37.669,76.36-80.383,71.115l-400.846-49.231v-186.74L2959.333,2761.804z"/>
			
				<linearGradient id="SVGID_00000009569549548700122520000013210692595024182943_" gradientUnits="userSpaceOnUse" x1="3570.1255" y1="2868.3389" x2="4142.4961" y2="2868.3389" gradientTransform="matrix(-1 0 0 1 6348.9976 0)">
				<stop  offset="0" style="stop-color:#444B8C"/>
				<stop  offset="0.9964" style="stop-color:#26264F"/>
			</linearGradient>
			<path style="fill:url(#SVGID_00000009569549548700122520000013210692595024182943_);" d="M2778.872,2738.917l-110.052,171.027
				c-15.732,24.448-41.546,40.607-70.411,44.075l-364.048,43.741l-27.859-184.106L2778.872,2738.917z"/>
			<g>
				
					<linearGradient id="SVGID_00000021812629474284957400000009931349252801160842_" gradientUnits="userSpaceOnUse" x1="3503.8992" y1="2960.1218" x2="3687.0942" y2="2960.1218" gradientTransform="matrix(-1 0 0 1 6348.9976 0)">
					<stop  offset="0" style="stop-color:#311944"/>
					<stop  offset="1" style="stop-color:#6B3976"/>
				</linearGradient>
				<path style="fill:url(#SVGID_00000021812629474284957400000009931349252801160842_);" d="M2753.501,2822.228
					c2.077,0,4.131,0.142,6.173,0.347l32.413-0.347l-0.19,12.705c31.404,21.866,53.2,69.681,53.2,125.191
					c0,57.697-23.548,107.093-56.96,127.661l-0.152,10.232h-34.485c-50.586,0-91.598-61.737-91.598-137.893
					C2661.903,2883.965,2702.915,2822.228,2753.501,2822.228z"/>
				
					<linearGradient id="SVGID_00000126302605727275278800000014034274854824742073_" gradientUnits="userSpaceOnUse" x1="3465.3125" y1="2960.1221" x2="3648.5068" y2="2960.1221" gradientTransform="matrix(-1 0 0 1 6348.9976 0)">
					<stop  offset="0" style="stop-color:#311944"/>
					<stop  offset="1" style="stop-color:#6B3976"/>
				</linearGradient>
				
					<ellipse style="fill:url(#SVGID_00000126302605727275278800000014034274854824742073_);" cx="2792.088" cy="2960.122" rx="91.597" ry="137.894"/>
				<ellipse style="fill:#D8DEE8;" cx="2804.961" cy="2960.122" rx="51.46" ry="77.47"/>
				
					<linearGradient id="SVGID_00000160159387469393815600000016581242950622225808_" gradientUnits="userSpaceOnUse" x1="3643.2017" y1="2972.4229" x2="3501.02" y2="2953.283" gradientTransform="matrix(-1 0 0 1 6348.9976 0)">
					<stop  offset="0.0054" style="stop-color:#D8DEE8"/>
					<stop  offset="1" style="stop-color:#F4F7FA"/>
				</linearGradient>
				
					<ellipse style="fill:url(#SVGID_00000160159387469393815600000016581242950622225808_);" cx="2797.175" cy="2960.122" rx="43.674" ry="71.923"/>
			</g>
			
				<linearGradient id="SVGID_00000117645871057210911230000017880273985282066362_" gradientUnits="userSpaceOnUse" x1="3223.7871" y1="2450.9097" x2="3993.0234" y2="2450.9097" gradientTransform="matrix(-1 0 0 1 6348.9976 0)">
				<stop  offset="0" style="stop-color:#FFC444"/>
				<stop  offset="0.9964" style="stop-color:#F36F56"/>
			</linearGradient>
			<path style="fill:url(#SVGID_00000117645871057210911230000017880273985282066362_);" d="M2355.974,2868.339l747.768-103.562
				c12.305-1.704,21.468-12.224,21.468-24.646v-658.827c0-13.443-10.679-24.456-24.115-24.87l-745.121-22.954V2868.339z"/>
			
				<linearGradient id="SVGID_00000173118924518932727210000014194252469404099514_" gradientUnits="userSpaceOnUse" x1="3993.0234" y1="2450.9097" x2="4579.9761" y2="2450.9097" gradientTransform="matrix(-1 0 0 1 6348.9976 0)">
				<stop  offset="0" style="stop-color:#FFC444"/>
				<stop  offset="0.9964" style="stop-color:#F36F56"/>
			</linearGradient>
			<path style="fill:url(#SVGID_00000173118924518932727210000014194252469404099514_);" d="M1769.021,2822.228l586.953,46.111
				V2033.48l-557.801,29.449c-16.343,0.863-29.152,14.366-29.152,30.732V2822.228z"/>
			
				<linearGradient id="SVGID_00000018933393612873054820000012155955096100077735_" gradientUnits="userSpaceOnUse" x1="3223.7878" y1="2459.3037" x2="3921.9541" y2="2459.3037" gradientTransform="matrix(-1 0 0 1 6348.9976 0)">
				<stop  offset="0" style="stop-color:#FFC444"/>
				<stop  offset="0.9964" style="stop-color:#F36F56"/>
			</linearGradient>
			<path style="opacity:0.3;fill:url(#SVGID_00000018933393612873054820000012155955096100077735_);" d="M2625.755,2353.119
				c108.692-137.007,324.762-35.908,433.836-189.577c24.587-34.637,41.697-69.966,53.585-103.432
				c7.194,4.371,12.034,12.195,12.034,21.193v658.827c0,12.424-9.161,22.942-21.468,24.646l-676.698,93.72
				c42.725-46.685,85.627-106.347,116.684-180.915C2611.92,2513.858,2554.784,2442.575,2625.755,2353.119z"/>
			
				<linearGradient id="SVGID_00000085238233814645335140000013071052023373613465_" gradientUnits="userSpaceOnUse" x1="4067.6021" y1="2721.8103" x2="5110.4214" y2="2721.8103" gradientTransform="matrix(-1 0 0 1 6348.9976 0)">
				<stop  offset="0.0054" style="stop-color:#D8DEE8"/>
				<stop  offset="1" style="stop-color:#F4F7FA"/>
			</linearGradient>
			<path style="fill:url(#SVGID_00000085238233814645335140000013071052023373613465_);" d="M2242.522,2378.936
				c20.25,90.902,67.49,353.104,14.772,634.895c-3.924,20.975-20.757,37.158-41.829,40.522l-182.133,29.08
				c0,0-1.823-172.427-89.319-183.735c-87.496-11.309-169.524,70.719-174.992,212.9c0,0-189.575,25.52-475.76-40.102
				c0,0-38.279-8.203-54.685-51.495l12.925-198.314c1.061-16.275,8.607-31.443,20.948-42.107l168.463-145.564
				c0,0,153.118-216.918,204.157-258.843c0,0,27.343-43.748,247.906-49.217c151.901-3.766,256.495,6.301,306.896,12.934
				C2220.905,2342.659,2237.909,2358.227,2242.522,2378.936z"/>
			
				<linearGradient id="SVGID_00000060741966154740554530000012521277734900055182_" gradientUnits="userSpaceOnUse" x1="4582.2544" y1="2740.4504" x2="4101.0283" y2="3502.3928" gradientTransform="matrix(-1 0 0 1 6348.9976 0)">
				<stop  offset="0.0054" style="stop-color:#D8DEE8"/>
				<stop  offset="1" style="stop-color:#F4F7FA"/>
			</linearGradient>
			<path style="opacity:0.6;fill:url(#SVGID_00000060741966154740554530000012521277734900055182_);" d="M1261.192,2793.561
				l8.374,9.156c-3.648,102.078-25.767,138.163,161.329,157.406c187.094,19.241,181.363-137.896,181.363-137.896l245.362-107.007
				l204.879-322.642c40.664-32.758,111.72-41.708,159.903-43.786c9.981,7.071,17.335,17.639,20.12,30.144
				c20.25,90.901,67.491,353.103,14.774,634.894c-3.925,20.974-20.758,37.158-41.831,40.522l-182.132,29.081
				c0,0-1.824-172.429-89.32-183.737c-87.496-11.308-169.524,70.719-174.992,212.901c0,0-189.574,25.521-475.76-40.101
				c0,0-38.28-8.203-54.685-51.497l12.926-198.313C1252.185,2812.212,1255.587,2802.212,1261.192,2793.561z"/>
			
				<linearGradient id="SVGID_00000051375539455215165240000013457698969772339349_" gradientUnits="userSpaceOnUse" x1="4346.1221" y1="2537.5071" x2="4909.0864" y2="2537.5071" gradientTransform="matrix(-1 0 0 1 6348.9976 0)">
				<stop  offset="0" style="stop-color:#444B8C"/>
				<stop  offset="0.9964" style="stop-color:#26264F"/>
			</linearGradient>
			<path style="fill:url(#SVGID_00000051375539455215165240000013457698969772339349_);" d="M1860.129,2668.153
				c-6.637,10.899-19.039,16.904-31.705,15.351l-388.512-47.625l0.999-0.862c0,0,127.068-180.012,188.276-243.749l358.252,21.55
				c12.337,0.742,19.452,14.346,13.023,24.902L1860.129,2668.153z"/>
			<path style="opacity:0.3;fill:#FFFFFF;" d="M1628.788,2547.171c105.784-41.588,193.683,7.701,266.432-50.456
				c27.986-22.374,44.661-53.438,54.504-86.166l37.713,2.267c12.339,0.742,19.452,14.346,13.025,24.905l-140.333,230.433
				c-6.638,10.897-19.041,16.902-31.706,15.351l-322.391-39.519C1548.376,2588.964,1591.956,2561.651,1628.788,2547.171z"/>
			
				<linearGradient id="SVGID_00000053524841030410201500000008878665356842300289_" gradientUnits="userSpaceOnUse" x1="4927.7251" y1="2781.4382" x2="4922.2568" y2="3102.2566" gradientTransform="matrix(-1 0 0 1 6348.9976 0)">
				<stop  offset="0" style="stop-color:#444B8C"/>
				<stop  offset="0.9964" style="stop-color:#26264F"/>
			</linearGradient>
			<path style="fill:url(#SVGID_00000053524841030410201500000008878665356842300289_);" d="M1285.437,2819.859
				c0.401-3.538,3.367-6.211,6.929-6.179c96.81,0.849,218.548,21.214,258.852,28.445c7.591,1.362,12.598,8.78,10.838,16.291
				c-7.879,33.636-20.95,56.381-30.573,69.579c-6.542,8.977-16.606,14.638-27.681,15.508c-30.461,2.392-98.03,6.459-130.79-1.341
				c-29.14-6.937-57.027-20.76-72.014-28.977c-8.723-4.78-14.889-13.26-16.413-23.092
				C1280.9,2866.336,1283.907,2833.41,1285.437,2819.859z"/>
			
				<linearGradient id="SVGID_00000142868350628676621220000012743952861076268694_" gradientUnits="userSpaceOnUse" x1="4630.6523" y1="2765.7253" x2="4792.8848" y2="3051.9109" gradientTransform="matrix(-1 0 0 1 6348.9976 0)">
				<stop  offset="0" style="stop-color:#FCB148"/>
				<stop  offset="0.0521" style="stop-color:#FDBA46"/>
				<stop  offset="0.1424" style="stop-color:#FFC244"/>
				<stop  offset="0.3183" style="stop-color:#FFC444"/>
				<stop  offset="0.4849" style="stop-color:#FDB946"/>
				<stop  offset="0.7754" style="stop-color:#F99C4D"/>
				<stop  offset="0.8658" style="stop-color:#F8924F"/>
				<stop  offset="1" style="stop-color:#F8924F"/>
			</linearGradient>
			<path style="fill:url(#SVGID_00000142868350628676621220000012743952861076268694_);" d="M1759.158,2829.2
				c2.723-5.525,0.107-12.178-5.67-14.316c-8.551-3.165-20.273-6.815-27.076-6.015c-8.926,1.05-84.399,20.653-118.919,29.687
				c-10.658,2.789-18.019,12.68-17.299,23.673c1.539,23.498,10.418,60.722,50.773,64.896
				C1696.988,2932.92,1732.385,2883.518,1759.158,2829.2z"/>
			
				<linearGradient id="SVGID_00000068649644187017513740000003018432639202625926_" gradientUnits="userSpaceOnUse" x1="4524.355" y1="3004.5149" x2="5110.4224" y2="3004.5149" gradientTransform="matrix(-1 0 0 1 6348.9976 0)">
				<stop  offset="0" style="stop-color:#444B8C"/>
				<stop  offset="0.9964" style="stop-color:#26264F"/>
			</linearGradient>
			<path style="fill:url(#SVGID_00000068649644187017513740000003018432639202625926_);" d="M1396.252,2968.139
				c146.859,20.507,176.653-29.89,176.653-29.89c34.758,5.169,84.16-1.643,112.15-6.516c10.672-1.858,21.02,3.209,26.994,12.246
				c4.466,6.757,12.587,13.599,27.352,16.145c24.101,4.152,65.139-5.023,85.243-10.187c-29.254,40.149-49.732,92.195-52.434,162.447
				c0,0-192.762,25.736-478.948-39.886c0,0-38.28-8.203-54.685-51.497l8.43-129.327
				C1262.004,2914.624,1301.228,2954.871,1396.252,2968.139z"/>
			
				<linearGradient id="SVGID_00000011742133615346409960000016264186628683274926_" gradientUnits="userSpaceOnUse" x1="4678.1992" y1="3031.5491" x2="5110.4224" y2="3031.5491" gradientTransform="matrix(-1 0 0 1 6348.9976 0)">
				<stop  offset="0" style="stop-color:#444B8C"/>
				<stop  offset="0.9964" style="stop-color:#26264F"/>
			</linearGradient>
			<path style="opacity:0.6;fill:url(#SVGID_00000011742133615346409960000016264186628683274926_);" d="M1635.104,2993.647
				c16.25-1.573,30.111,11.442,29.751,27.764c-0.769,34.886,2.796,71.4,5.944,96.056c-83.152,0.19-214.66-7.623-377.538-44.971
				c0,0-38.28-8.203-54.685-51.497l4.913-75.374C1360.824,3012.154,1558.352,3001.089,1635.104,2993.647z"/>
			
				<linearGradient id="SVGID_00000081614959335388767900000009658923090881915796_" gradientUnits="userSpaceOnUse" x1="4133.4307" y1="2561.3147" x2="4398.001" y2="2561.3147" gradientTransform="matrix(-1 0 0 1 6348.9976 0)">
				<stop  offset="0" style="stop-color:#444B8C"/>
				<stop  offset="0.9964" style="stop-color:#26264F"/>
			</linearGradient>
			<path style="fill:url(#SVGID_00000081614959335388767900000009658923090881915796_);" d="M2179.876,2431.656l-52.764,12.769
				c-17.248,4.174-32.343,14.582-42.377,29.219l-130.622,190.533c-8.916,13.005,2.599,30.233,18.025,26.97l226.331-47.878
				c9.116-1.928,15.778-9.743,16.181-19.052c1.415-32.652,2.93-110.039-9.864-176.411
				C2202.566,2436.291,2191.275,2428.898,2179.876,2431.656z"/>
		</g>
	</g>
</g>
</svg>
